<svg width="455" height="451" viewBox="0 0 455 451" fill="none" xmlns="http://www.w3.org/2000/svg">
<path d="M228.5 63.5V147M228.5 63.5L157.5 103V9M228.5 63.5L300 103V9M228.5 147L157.5 189M228.5 147L300 189M157.5 189V275M157.5 189L228.5 230.5M157.5 275L228.5 317.5M157.5 275L83 317.5M228.5 317.5V230.5M228.5 317.5L300 275M228.5 230.5L300 189M300 275V189M300 275L374 317.5M374 317.5V397L373.48 397.316M374 317.5L300 358.5L373.48 397.316M374 317.5L446 275M374 317.5L373.48 230.5L446 275M83 317.5V230.5L9 275M83 317.5V402.5M83 317.5L9 275M83 317.5L157.5 358.5L83 402.5M83 402.5L157.5 442L228.5 402.5L300 442L373.48 397.316M9 275V189L83 147V58L157.5 9M157.5 9L228.5 50L300 9M300 9L374 58V147L446 189V275" stroke="black" stroke-width="18" stroke-linejoin="round"/>
</svg>
